<?xml version="1.0" encoding="utf-8"?>
<!-- Generator: Adobe Illustrator 19.1.0, SVG Export Plug-In . SVG Version: 6.00 Build 0)  -->
<svg version="1.1" id="icon" xmlns="http://www.w3.org/2000/svg" xmlns:xlink="http://www.w3.org/1999/xlink" x="0px" y="0px"
	 width="16" height="16" viewBox="0 0 16 13" style="enable-background:new 0 0 16 13;" xml:space="preserve">
<linearGradient id="SVGID_1_" gradientUnits="userSpaceOnUse" x1="8" y1="1.491571e-10" x2="8" y2="13">
	<stop  offset="0" style="stop-color:#8C26BD"/>
	<stop  offset="1" style="stop-color:#5E0080"/>
</linearGradient>
<polygon style="fill-rule:evenodd;clip-rule:evenodd;fill:url(#SVGID_1_);" points="11.326,0 6.12,4.024 2.304,1.64 0,3.224 
	0,9.776 2.304,11.36 6.12,8.976 11.326,13 11.846,13 16,11.475 16,1.525 11.846,0 "/>
<path style="fill-rule:evenodd;clip-rule:evenodd;fill:#FFFFFF;" d="M11.668,8.686L8.182,6.5l3.486-2.186V8.686z M2.33,8.219V4.781
	L4.556,6.5L2.33,8.219z M11.668,1L6.18,5.242L2.33,2.836L1,3.75v5.5l1.33,0.914l3.85-2.406L11.668,12L15,10.777V2.223L11.668,1z"/>
</svg>
