<svg xmlns:svg="http://www.w3.org/2000/svg" xmlns="http://www.w3.org/2000/svg" version="1.1" id="Layer_1" x="0px" y="0px" width="128" height="128" viewBox="0 0 128 128" enable-background="new 0 0 612 792" xml:space="preserve">
  <metadata id="metadata68"/>
  <defs id="defs66"/>
  <path d="M35.515714 80.34312H15.885323c2.599174 8.915977 7.422361 16.906949 14.483627 23.96938 11.257228 11.2584 24.79357 16.87997 40.623094 16.87997 3.164263 0 6.230047-0.23564 9.207902-0.68466 11.923141-1.79962 22.362034-7.19023 31.306154-16.19531 7.10699-7.060091 11.96417-15.053403 14.58328-23.96938h-7.96635-11.6488-70.958516z" id="path3" fill="#2c2255"/>
  <g id="g5" transform="matrix(1.1723837,0,0,1.1723837,-83.040411,-380.32863)">
    <path d="m91.891 370.194h-8.747c-0.32 1.922-0.538 3.884-0.637 5.896h10.396 5.215 75.275 6.871c-0.1-2.012-0.318-3.974-0.641-5.896M82.507 381.565c0.099 2.013 0.316 3.975 0.637 5.896h9.094 6.893 73.648 6.846c0.322-1.921 0.542-3.883 0.642-5.896" id="path7" fill="#2c2255"/>
  </g>
  <path d="M126.09172 47.260798C123.47496 38.3202 118.61661 30.291717 111.5061 23.180037 102.58543 14.259371 92.175844 8.9074389 80.291391 7.1066579 77.2854 6.6505999 74.189134 6.4114339 70.992044 6.4114339 55.16252 6.4114339 41.625006 12.002532 30.36895 23.180037 23.305339 30.291717 18.479808 38.3202 15.881806 47.260798" id="path11" fill="#2c2255"/>
  <g id="g13" transform="matrix(1.1723837,0,0,1.1723837,-83.040411,-380.32863)">
    <path d="m79.6 378.829c0-25.824 19.395-47.281 44.626-51.055-0.626-0.023-1.255-0.048-1.887-0.048-28.314 0-51.269 22.88-51.269 51.103 0 28.224 22.954 51.103 51.269 51.103 0.634 0 1.263-0.024 1.891-0.047C98.995 426.111 79.6 404.654 79.6 378.829z" id="path15" fill="#f7941e"/>
  </g>
  <g id="g33" transform="matrix(1.1723837,0,0,1.1723837,-83.040411,-380.32863)">
    <linearGradient id="SVGID_1_" gradientUnits="userSpaceOnUse" x1="131.3853" y1="358.5762" x2="131.3853" y2="432.21109" gradientTransform="matrix(1,0,0,-1,0,793)">
      <stop offset="0.3033" id="stop36" stop-color="#473788"/>
      <stop offset="0.872" id="stop38" stop-color="#2C2255"/>
    </linearGradient>
    <path d="m164.653 376.089c-0.164-2.021-0.504-3.992-1.012-5.896h-64.51c-0.508 1.903-0.849 3.874-1.013 5.896h66.535z" id="path40" fill="url(#SVGID_1_)"/>
    <linearGradient id="SVGID_2_" gradientUnits="userSpaceOnUse" x1="131.3853" y1="358.5752" x2="131.3853" y2="432.21011" gradientTransform="matrix(1,0,0,-1,0,793)">
      <stop offset="0.3033" id="stop43" stop-color="#473788"/>
      <stop offset="0.872" id="stop45" stop-color="#2C2255"/>
    </linearGradient>
    <path d="M164.653 381.565H98.119c0.164 2.021 0.503 3.992 1.012 5.896h64.511c0.508-1.904 0.847-3.875 1.011-5.896z" id="path47" fill="url(#SVGID_2_)"/>
    <linearGradient id="SVGID_3_" gradientUnits="userSpaceOnUse" x1="131.3853" y1="358.57709" x2="131.3853" y2="432.2084" gradientTransform="matrix(1,0,0,-1,0,793)">
      <stop offset="0.3033" id="stop50" stop-color="#473788"/>
      <stop offset="0.8631" id="stop52" stop-color="#2C2255"/>
    </linearGradient>
    <path d="m131.386 412.217c13.397 0 24.945-7.893 30.263-19.281h-60.526c5.318 11.388 16.866 19.281 30.263 19.281z" id="path54" fill="url(#SVGID_3_)"/>
  </g>
  <g id="g56" transform="matrix(1.1723837,0,0,1.1723837,-83.040411,-380.32863)">
    <path d="m93.188 381.565h4.884 66.706 8.763 6.657c0.046-0.871 0.072-1.748 0.072-2.631 0-0.955-0.035-1.902-0.089-2.845H173.54 164.777 98.071 92.842 82.507c-0.054 0.942-0.089 1.89-0.089 2.845 0 0.883 0.026 1.76 0.072 2.631h10.698zM100.928 364.718H84.376c-0.544 1.783-0.895 3.612-1.232 5.476h8.525 7.259 64.679 9.16 6.547c-0.338-1.863-0.773-3.692-1.316-5.476M173.026 387.46h-9.16-64.678-6.912-9.133c0.328 1.863 0.701 3.691 1.236 5.476h16.807 60.682 9.962 6.488c0.534-1.784 0.965-3.612 1.294-5.476h-6.586z" id="path58" fill="#fff"/>
  </g>
</svg>
